<?xml version="1.0" ?><svg viewBox="0 0 53 36" width="53" height="36" fill="none" xmlns="http://www.w3.org/2000/svg">
            <path clip-rule="evenodd" d="M13.736 7.701V1.385H1.385v33.191h6.27L7.653 7.704l6.084-.003zM6.962 33.88V7.001h6.08V4.89H4.865v28.99h2.097zM4.172 4.193v29.686H2.079V2.08h10.963v2.114h-8.87zm10.979 3.508l-.01-6.316h27.615c4.852 0 9.288 4.52 9.283 9.355v14.507c0 5.083-4.359 9.233-9.283 9.32l-1.313.003c-5.074.001-9.506-4.188-9.507-9.333V9.13h6.43v16.093c-.002 1.671 1.426 3.014 3.078 3.01l1.312-.017c1.543-.108 2.863-1.412 2.86-2.993V10.7c.003-1.58-1.308-2.883-2.872-2.993L26.107 7.7v26.914H19.83V7.701h-4.679zm33.332 17.546V10.74c-.014-3.144-2.637-5.725-5.727-5.832l-26.914.004.003 2.094 26.899-.003c1.946.098 3.566 1.73 3.566 3.697v14.523c0 1.944-1.633 3.6-3.554 3.697h-1.313c-2.03.003-3.771-1.643-3.774-3.697V9.828h-2.167V25.23c.001 3.238 2.77 5.816 5.941 5.815l1.313-.003c3.067 0 5.71-2.767 5.727-5.795zm2.863-14.507v14.49c.003 4.575-3.997 8.64-8.59 8.64h-1.313c-4.667-.008-8.83-3.867-8.797-8.64V9.828h2.16v15.409c-.005 3.616 3.1 6.508 6.638 6.508h1.312c3.442-.12 6.405-3.008 6.424-6.498V10.74c-.012-3.432-2.974-6.532-6.436-6.532l-26.902.01-.003-2.14 26.917.006c4.546.16 8.595 3.984 8.59 8.655zM25.41 33.918V7.701h-2.094v26.217h2.094zM22.619 7.701v26.217h-2.092V7.701h2.092z" stroke="#EB3333" stroke-width="1.2"></path>
        </svg>