<svg xmlns="http://www.w3.org/2000/svg" width="205" height="120" xml:space="preserve"><path d="M60.6 53.4c-4.1-4.1-11.4-6.4-13.3-7 0 0-1.2-.4-14.1-4.6-2.1-.7-12.4-3.3-12.4-12.4s8.7-12 13.3-12c.8 0 6.2-.4 12.4 4.1 6.2 4.6 11.6 19.1 11.6 19.1h4.5V14h-4.5l-3.7 3.7C49.5 14.8 42.3 12 33.3 12 18 12 3.1 19.9 3.1 36S18 58.4 23 60.1c5 1.6 9.1 2.9 15.3 5C44 67 49.1 70 49.1 77.5s-5.8 10.4-9.5 11.2c-2.1.4-2.5.4-1.2.4h18.2s2.5-1.2 5-4.1 5.8-8.3 5.8-14.9c-.1-7.2-2.6-12.7-6.8-16.7zM30.3 88.8c-2.5-.5-4.4-.8-6.5-1.9-2.9-1.4-6-3.8-8.3-6.3-2.2-2.4-3.9-5-5.5-8-1.4-2.5-2.1-4.9-3.1-7.2H1V89h29.3c.1 0 .1-.1 0-.2.1.1 0 0 0 0zm98.3 19.8c0-5.7 2.8-10.7 7-13.9H1v23.2h130.3c-1.7-2.6-2.7-5.8-2.7-9.3zm46.7 9.2c-.7 0-1.4-.2-2-.5-2.2-1.1-3-3.7-1.9-5.9l16.4-32.2L171.4 47c-1.1-2.1-.2-4.8 1.9-5.9 2.1-1.1 4.8-.2 5.9 1.9l17.4 34.2c.6 1.2.6 2.7 0 4l-17.4 34.2c-.7 1.5-2.3 2.4-3.9 2.4z" fill="#7FC220"/><path d="M18.3 98h-2.9v2.9h-2v2.6h2v6.8c0 2 1.1 3.1 3.3 3.1.6 0 1.3-.1 2-.2l.4-.1v-2.8l-.5.1c-.5.1-.8.2-1.3.2-.8 0-1-.2-1-.8v-6.3h2.8v-2.7h-2.8V98zm12.6 2.5c-4 0-6.6 2.5-6.6 6.4s2.6 6.4 6.6 6.4c3.2 0 5.5-1.5 6.4-4.1l.2-.6h-3.3l-.1.3c-.4 1.1-1.5 1.6-3.2 1.6-2 0-3.4-1.1-3.6-2.8h10.2v-.7c0-4-2.5-6.5-6.6-6.5zm0 2.8c1.8 0 3 .8 3.4 2.2h-6.9c.5-1.4 1.7-2.2 3.5-2.2zm9.9-6.3h2.9v16.2h-2.9zm12.9 3.5c-4 0-6.6 2.5-6.6 6.4s2.6 6.4 6.6 6.4c3.2 0 5.5-1.5 6.4-4.1l.2-.6H57l-.1.3c-.4 1.1-1.5 1.6-3.2 1.6-2 0-3.4-1.1-3.6-2.8h10.2v-.7c0-4-2.6-6.5-6.6-6.5zm0 2.8c1.8 0 3 .8 3.4 2.2h-6.9c.5-1.4 1.7-2.2 3.5-2.2zm19.6 5c-.2 1.4-1.4 2.3-3.1 2.3-2.2 0-3.6-1.4-3.6-3.6 0-2.3 1.4-3.7 3.7-3.7 1.5 0 2.5.7 2.9 1.9l.1.3h3l-.1-.5c-.5-2.8-2.8-4.5-6.1-4.5-3.9 0-6.6 2.7-6.6 6.4 0 3.8 2.6 6.4 6.6 6.4 3.3 0 5.7-1.8 6.2-4.9l.1-.5h-3.1v.4zm13.1-7.8c-4.1 0-6.8 2.5-6.8 6.4s2.7 6.4 6.8 6.4 6.7-2.5 6.7-6.4c.1-3.8-2.5-6.4-6.7-6.4zm0 10.1c-2.4 0-3.7-1.4-3.7-3.7 0-2.3 1.4-3.7 3.7-3.7 2.4 0 3.7 1.4 3.7 3.7.1 2.4-1.3 3.7-3.7 3.7zm26.3-10.1c-1.8 0-3.3.7-4.7 2.1-.7-1.4-2.2-2.1-4.1-2.1-1.6 0-3.1.6-4.2 1.6v-1.3h-2.9V113h2.9v-6.2c0-2.2 1.5-3.8 3.7-3.8 1.7 0 2.3.8 2.3 2.9v7h2.8v-6.2c0-2.2 1.5-3.8 3.7-3.8 1.7 0 2.3.8 2.3 2.9v7h2.9v-6.9c0-2.4-.5-5.4-4.7-5.4z" fill="#FFF"/><linearGradient id="a" gradientUnits="userSpaceOnUse" x1="125.15" y1="2.728" x2="125.15" y2="117.975" gradientTransform="matrix(1 0 0 -1 0 120)"><stop offset="0" style="stop-color:#000"/><stop offset="1" style="stop-color:#41494c"/></linearGradient><path fill="url(#a)" d="M176.2 72s-10.8-21.2-12.5-24.4c-3.7-7.5 1.8-7 6.2-7V36h-62.5v4.6c8.7 0 11.8 1.8 4.1 9.5L95.4 66.2v-60l-27 1.2V12s4 .1 6.6 2.1c2.1 1.6 2.1 6.2 2.1 6.2V89h18.2V74.5l6.6-6.6L117.4 89h22.8l-24.9-33.9s.5-.9 6.2-6.6c12.4-12.4 17.7-8.6 22.8 1.2 3.5 6.7 17 33.2 21.6 42.6.1.3-3.1 6.6-6.7 10.7-3.1 3.4-5 3.7-5.3 3.3-.3-.5-.7-1-1-1.4-.5-.7-1-1.4-1.6-2-3.7-3.7-9.4-4.1-12.7-.7-3.3 3.3-3 9 .7 12.7 2 2 4.6 3.1 7.1 3h.1c5.9-.1 13.1-.1 27.7-29l7.7-15.1-3.3-6.5-2.4 4.7z"/><linearGradient id="b" gradientUnits="userSpaceOnUse" x1="193" y1="2.728" x2="193" y2="117.975" gradientTransform="matrix(1 0 0 -1 0 120)"><stop offset="0" style="stop-color:#000"/><stop offset="1" style="stop-color:#41494c"/></linearGradient><path fill="url(#b)" d="M182 36v4.6c5.8 0 10.3-.1 6.6 7l-1.9 3.7 3.3 6.5 3.6-6.9c3.8-7.3 5.5-10.3 10.4-10.3V36h-22z"/><linearGradient id="c" gradientUnits="userSpaceOnUse" x1="124.7" y1="2.728" x2="124.7" y2="117.975" gradientTransform="matrix(1 0 0 -1 0 120)"><stop offset="0" style="stop-color:#000"/><stop offset="1" style="stop-color:#41494c"/></linearGradient><path fill="url(#c)" d="M120.7 25.6h-3.3V13.2c.3-.7.8-1.1 1.3-1.6s1.1-1 1.7-1.4c1.2-.7 2.7-1.2 4.1-1.4s2.8-.1 4.1.4c1 .4 1.8 1 2.3 2 .7 1.3 1 2.9 1 4.4v10.1h-3.2v2.1h13.2v-2.1h-3.6V14.8c0-1.8-.2-3.6-1.1-5.1-.8-1.5-2.3-2.5-3.9-3.1-1.8-.6-3.7-.7-5.5-.7-1.8 0-3.6.2-5.3.8-1 .3-1.9.8-2.7 1.4s-1.6 1.2-2.3 2v-4h-10v2.1h3.7v17.4h-3.7v2.1h13.2v-2.1z"/><linearGradient id="d" gradientUnits="userSpaceOnUse" x1="159.593" y1="2.728" x2="159.593" y2="117.975" gradientTransform="matrix(1 0 0 -1 0 120)"><stop offset="0" style="stop-color:#000"/><stop offset="1" style="stop-color:#41494c"/></linearGradient><path fill="url(#d)" d="M171.9 25c-1.6 1.6-3.9 2.4-6.1 2.9-2.5.5-5.1.5-7.6.2-4.7-.6-9.8-2.7-11.4-7.6-.7-2.3-.7-4.9.1-7.1.6-2 1.9-3.6 3.6-4.8 1.7-1.2 3.7-1.9 5.7-2.2 2.4-.5 5-.6 7.5-.2 2.4.3 5 1 6.9 2.7.8.7 1.5 1.7 1.9 2.8.4 1.2.5 2.5.3 3.7-.1.6-.2 1.3-.3 1.9H153c0 1.5.4 2.9 1.2 4.1.8 1.2 2 2 3.3 2.7 1.3.6 2.7.9 4.2 1.1s3 .2 4.4-.1c1.5-.3 3.2-.7 4.5-1.6l1.3 1.5zM160.6 7.9c-2 0-4.1.3-5.7 1.8-1.4 1.4-1.9 3.5-2 5.4h13.8c.3-1.9.1-4-1.2-5.4s-3.1-1.8-4.9-1.8z"/><linearGradient id="e" gradientUnits="userSpaceOnUse" x1="187.95" y1="2.728" x2="187.95" y2="117.975" gradientTransform="matrix(1 0 0 -1 0 120)"><stop offset="0" style="stop-color:#000"/><stop offset="1" style="stop-color:#41494c"/></linearGradient><path fill="url(#e)" d="M182 2v4.1h-5v2.5h5v13.5c0 1.2.2 2.6.9 3.6.6.9 1.6 1.5 2.6 1.9 1.3.5 2.7.6 4.1.6 1.6 0 3.2-.2 4.8-.5 1.6-.4 3.2-1 4.5-1.9l-1.6-1.8c-.3.2-.5.3-.8.5-.7.3-1.5.6-2.2.8-.7.2-1.5.3-2.3.3-1.1-.1-2.3-.3-2.9-1.3-.7-1-.8-2.3-.8-3.4V8.7h9.1V6.2h-9.1V2.1L182 2z"/></svg>